<svg width="36" height="51" viewBox="0 0 36 51" fill="none" xmlns="http://www.w3.org/2000/svg">
<path d="M35.0684 50.6885H0.136719V43.3398L12.6807 30.6592C16.3949 26.8538 18.8216 24.222 19.9609 22.7637C21.1003 21.2826 21.9206 19.9154 22.4219 18.6621C22.9232 17.4089 23.1738 16.11 23.1738 14.7656C23.1738 12.7604 22.6156 11.2679 21.499 10.2881C20.4053 9.30827 18.9355 8.81836 17.0898 8.81836C15.153 8.81836 13.2731 9.2627 11.4502 10.1514C9.62728 11.04 7.72461 12.3047 5.74219 13.9453L0 7.14355C2.46094 5.0472 4.50033 3.56608 6.11816 2.7002C7.736 1.83431 9.50195 1.1735 11.416 0.717773C13.3301 0.239258 15.472 0 17.8418 0C20.9635 0 23.7207 0.569661 26.1133 1.70898C28.5059 2.84831 30.363 4.44336 31.6846 6.49414C33.0062 8.54492 33.667 10.8919 33.667 13.5352C33.667 15.8366 33.2568 18.0013 32.4365 20.0293C31.639 22.0345 30.3857 24.0967 28.6768 26.2158C26.9906 28.335 24.0055 31.3542 19.7217 35.2734L13.2959 41.3232V41.8018H35.0684V50.6885Z" fill="#3D3D3D"/>
</svg>
