<svg width="35" height="52" viewBox="0 0 35 52" fill="none" xmlns="http://www.w3.org/2000/svg">
<path d="M33.1201 11.8945C33.1201 15.0163 32.1745 17.6709 30.2832 19.8584C28.3919 22.0459 25.7373 23.5498 22.3193 24.3701V24.5752C26.3525 25.0765 29.4059 26.307 31.4795 28.2666C33.5531 30.2035 34.5898 32.8239 34.5898 36.1279C34.5898 40.9359 32.8467 44.6842 29.3604 47.373C25.874 50.0391 20.8952 51.3721 14.4238 51.3721C9.00065 51.3721 4.19271 50.472 0 48.6719V39.6826C1.93685 40.6624 4.06738 41.46 6.3916 42.0752C8.71582 42.6904 11.0173 42.998 13.2959 42.998C16.7822 42.998 19.3571 42.4056 21.0205 41.2207C22.6839 40.0358 23.5156 38.1331 23.5156 35.5127C23.5156 33.1657 22.5586 31.5023 20.6445 30.5225C18.7305 29.5426 15.6771 29.0527 11.4844 29.0527H7.69043V20.9521H11.5527C15.4264 20.9521 18.252 20.4508 20.0293 19.4482C21.8294 18.4229 22.7295 16.6797 22.7295 14.2188C22.7295 10.4362 20.3597 8.54492 15.6201 8.54492C13.9795 8.54492 12.3047 8.81836 10.5957 9.36523C8.90951 9.91211 7.02962 10.8577 4.95605 12.2021L0.0683594 4.92188C4.62565 1.64062 10.0602 0 16.3721 0C21.5446 0 25.6234 1.04818 28.6084 3.14453C31.6162 5.24089 33.1201 8.15755 33.1201 11.8945Z" fill="#3D3D3D"/>
</svg>
